<?xml version="1.0" encoding="UTF-8" standalone="no"?>
<!-- Created with Inkscape (http://www.inkscape.org/) -->

<svg
   xmlns:dc="http://purl.org/dc/elements/1.1/"
   xmlns:cc="http://creativecommons.org/ns#"
   xmlns:rdf="http://www.w3.org/1999/02/22-rdf-syntax-ns#"
   xmlns:svg="http://www.w3.org/2000/svg"
   xmlns="http://www.w3.org/2000/svg"
   xmlns:sodipodi="http://sodipodi.sourceforge.net/DTD/sodipodi-0.dtd"
   xmlns:inkscape="http://www.inkscape.org/namespaces/inkscape"
   width="24.442738mm"
   height="24.060413mm"
   viewBox="0 0 24.442738 24.060413"
   version="1.1"
   id="svg8"
   inkscape:version="0.92.1 r15371"
   sodipodi:docname="drawing.svg">
  <defs
     id="defs2" />
  <sodipodi:namedview
     id="base"
     pagecolor="#ffffff"
     bordercolor="#666666"
     borderopacity="1.0"
     inkscape:pageopacity="0.0"
     inkscape:pageshadow="2"
     inkscape:zoom="2.02"
     inkscape:cx="170.88091"
     inkscape:cy="-16.119761"
     inkscape:document-units="mm"
     inkscape:current-layer="g3790"
     showgrid="false"
     inkscape:window-width="1841"
     inkscape:window-height="1057"
     inkscape:window-x="-8"
     inkscape:window-y="-8"
     inkscape:window-maximized="1"
     fit-margin-top="0"
     fit-margin-left="0"
     fit-margin-right="0"
     fit-margin-bottom="0" />
  <metadata
     id="metadata5">
    <rdf:RDF>
      <cc:Work
         rdf:about="">
        <dc:format>image/svg+xml</dc:format>
        <dc:type
           rdf:resource="http://purl.org/dc/dcmitype/StillImage" />
        <dc:title></dc:title>
      </cc:Work>
    </rdf:RDF>
  </metadata>
  <g
     inkscape:label="Layer 1"
     inkscape:groupmode="layer"
     id="layer1"
     transform="translate(-2.935013e-7,-272.93959)">
    <g
       id="g3790"
       transform="matrix(0.26458333,0,0,0.26458333,64.637811,74.892751)">
      <path
         inkscape:connector-curvature="0"
         id="path3716"
         style="fill:#ffffff;fill-rule:evenodd"
         d="m -198.10939,748.52348 a 46.191,45.4685 0 0 1 46.191,45.4685 46.191,45.4685 0 1 1 -46.191,-45.4685 z"
         inkscape:export-xdpi="96"
         inkscape:export-ydpi="96" />
      <path
         inkscape:connector-curvature="0"
         id="path3718"
         style="fill:#c95e0c;fill-rule:evenodd"
         d="m -201.10699,762.27678 c 12.6919,-2.6252 25.0466,3.7126 29.8562,14.5454 -8.2244,0.6469 -17.0127,1.8872 -26.0696,3.7606 -9.0572,1.8735 -17.6162,4.2214 -25.4224,6.8903 0.1172,-11.8518 8.9438,-22.5709 21.6358,-25.1963 z"
         inkscape:export-xdpi="96"
         inkscape:export-ydpi="96" />
      <path
         inkscape:connector-curvature="0"
         id="path3720"
         style="fill:#d97721;fill-rule:evenodd"
         d="m -201.48729,761.81218 c 12.692,-2.6253 25.0467,3.7124 29.8562,14.5453 -8.2243,0.6469 -17.0125,1.8872 -26.0696,3.7607 -9.0571,1.8734 -17.6163,4.2214 -25.4224,6.8903 0.1173,-11.8519 8.9438,-22.5711 21.6358,-25.1963 z"
         inkscape:export-xdpi="96"
         inkscape:export-ydpi="96" />
      <path
         inkscape:connector-curvature="0"
         id="path3722"
         style="fill:#ffffff;fill-rule:evenodd"
         d="m -201.08019,761.95208 c 0.1227,-0.7997 -2.1889,4.9735 5.1041,6.7092 7.7741,1.85 16.6936,1.7856 21.6006,3.0125 -0.1618,-0.2167 -0.3276,-0.43 -0.4962,-0.6411 -0.5469,-0.2722 -1.2084,-0.5648 -1.9538,-0.8268 -7.4193,-2.6089 -25.5845,0.4188 -24.2547,-8.2538 z"
         inkscape:export-xdpi="96"
         inkscape:export-ydpi="96" />
      <path
         inkscape:connector-curvature="0"
         id="path3724"
         style="fill:#ffffff;fill-rule:evenodd"
         d="m -216.18539,770.01268 c -0.4509,1.6375 -0.0295,4.7168 8.0687,5.2546 12.9869,0.8624 28.2509,-0.5125 36.0663,0.198 -0.0563,-0.1141 -0.1139,-0.2272 -0.1718,-0.3402 -1.009,-0.2828 -2.495,-0.6326 -4.3072,-0.8855 -11.693,-1.6319 -41.1641,3.6746 -39.3181,-4.5833 -0.1138,0.1178 -0.2263,0.2368 -0.3379,0.3564 z"
         inkscape:export-xdpi="96"
         inkscape:export-ydpi="96" />
      <path
         inkscape:connector-curvature="0"
         id="path3726"
         style="fill:#ffffff;fill-rule:evenodd"
         d="m -221.87719,779.56078 c -0.0951,1.739 0.5959,4.5421 5.6312,4.4166 1.169,-0.0292 2.363,-0.1055 3.5663,-0.2147 4.4744,-1.2591 9.131,-2.4085 13.9316,-3.4252 -8.669,0.7986 -23.4064,6.1807 -22.9184,-1.3896 -0.0731,0.2032 -0.1428,0.4078 -0.2107,0.6129 z"
         inkscape:export-xdpi="96"
         inkscape:export-ydpi="96" />
      <path
         inkscape:connector-curvature="0"
         id="path3728"
         style="fill:#d97721;fill-rule:evenodd"
         d="m -188.98429,824.23008 c 12.692,-2.6253 21.6682,-12.6211 21.9845,-23.5111 -7.824,2.5832 -16.3927,4.8841 -25.4498,6.7576 -9.0571,1.8734 -17.8356,3.1607 -26.0422,3.8933 4.6105,9.871 16.8157,15.4856 29.5075,12.8602 z"
         inkscape:export-xdpi="96"
         inkscape:export-ydpi="96" />
      <path
         inkscape:connector-curvature="0"
         id="path3730"
         style="fill:#0a0f09;fill-rule:evenodd"
         d="m -241.01479,804.03708 c 3.5765,17.2906 17.0706,28.9034 32.2097,33.3513 36.6011,10.7513 59.8377,-30.4876 56.1995,-48.0755 -1.6247,-7.8548 -0.94,-9.0612 -4.8703,-12.0569 2.7557,13.3221 1.3754,19.7448 -3.98,27.8919 -19.5968,31.5726 -48.6588,24.0791 -62.3758,6.7356 -0.0569,-0.071 0.2743,0.4791 -0.382,-0.6126 -0.246,-0.4092 -2.2123,3.4793 -2.4801,3.0325 -0.3043,-0.508 0.239,-6.7591 -0.0469,-7.2387 -0.762,-1.2774 -1.3781,-2.3087 -1.3781,-2.3087 -2.4737,9.2947 -5.3163,10.0187 -5.3164,9.8827 -0.0376,-13.8745 -2.6489,-15.7093 -6.0587,-19.7763 -0.2066,-0.2463 7.8491,-4.7995 7.8647,-5.1241 0.2434,-5.0289 2.0729,-9.6466 5.5915,-14.141 9.7217,-12.4169 23.0235,-17.4269 34.434,-19.7872 7.9745,-1.6495 15.6397,5.2071 20.1154,9.8225 3.9977,4.1221 7.0476,9.9288 9.6405,15.2814 2.5745,5.3187 -0.9053,2.6633 3.7437,4.7864 -3.3388,-16.1417 -13.4667,-27.1729 -26.2368,-33.4548 -18.8973,-9.29849 -64.5666,13.6347 -56.6739,51.7915 z"
         inkscape:export-xdpi="96"
         inkscape:export-ydpi="96" />
      <path
         inkscape:connector-curvature="0"
         id="path3732"
         style="fill:#1b1918;fill-rule:evenodd"
         d="m -196.88629,794.83958 c -0.2484,-0.3576 -0.5466,-0.7147 -0.8945,-1.0714 -0.6378,-0.6957 -1.6593,-1.4415 -3.0596,-2.2336 -0.8247,2.4238 -1.3814,4.3837 -1.6741,5.8849 1.6335,-0.5621 3.5091,-1.4237 5.6282,-2.5799 z m -5.8627,6.9658 c 0.1086,0.526 0.1988,0.9608 0.2663,1.3109 0.0674,0.35 0.1379,0.7392 0.2154,1.1619 0.1295,0.6263 0.2978,1.3442 0.5053,2.1538 0.2073,0.8096 0.3507,1.3582 0.4322,1.6555 l -7.2759,0.0145 c -0.0328,-0.3521 -0.0627,-0.9542 -0.094,-1.8054 -0.0316,-0.8508 -0.031,-1.8132 0.002,-2.8821 -0.6749,0.065 -1.3007,0.0999 -1.8664,0.1121 -0.567,0.007 -0.964,0.0149 -1.1892,0.0116 l 0.5462,-5.916 c 0.2396,0.0503 0.6778,0.1192 1.3102,0.2126 0.6372,0.0926 1.31,0.1627 2.0322,0.2078 0.2189,-0.6783 0.4437,-1.2533 0.6646,-1.7277 0.7058,-1.4323 2.2106,-3.3637 4.5137,-5.7993 -0.5266,-0.28 -1.0156,-0.5228 -1.4632,-0.7344 -0.4465,-0.2069 -0.7594,-0.3464 -0.9391,-0.4192 l 6.6163,-5.3715 c 0.2022,0.1825 0.5307,0.4934 0.9787,0.924 0.4481,0.4308 1.0336,1.0675 1.7446,1.9024 0.7158,0.8345 1.4155,1.7813 2.0974,2.8369 0.6877,1.0593 1.1904,2.0918 1.5055,3.1086 0.1232,0.4031 0.2067,0.7099 0.2512,0.925 0.3037,1.4678 0.3821,3.1016 0.2316,4.9027 -0.1454,1.8047 -0.3506,3.3429 -0.6055,4.617 -0.2597,1.2751 -0.456,2.183 -0.5999,2.7164 0.019,-0.004 -0.0384,-0.3311 -0.1739,-0.986 -0.1661,-0.8032 -0.3895,-1.7141 -0.6605,-2.7349 -0.2748,-1.0151 -0.6189,-2.0757 -1.0396,-3.17 -0.4161,-1.0954 -0.8687,-2.0787 -1.3559,-2.9402 -0.519,0.601 -1.1142,1.2427 -1.7837,1.9096 -0.6688,0.6718 -1.4236,1.3365 -2.258,2.0025 -0.84,0.6623 -1.7074,1.2654 -2.6087,1.8009 z m 34.9097,-13.8963 c -0.485,-1.1162 -1.1774,-2.2941 -2.0733,-3.5396 -0.9004,-1.2445 -1.6056,-2.1707 -2.1103,-2.7792 l 7.9561,-4.8711 c 0.0558,0.1728 0.1636,0.5494 0.3273,1.1236 0.1634,0.5745 0.3334,1.2273 0.5146,1.9577 0.1807,0.7303 0.3485,1.4683 0.5008,2.2045 0.4787,2.314 0.7373,4.2397 0.7696,5.7686 0.0808,2.4158 -0.1702,4.5768 -0.7647,6.4745 -0.5888,1.9014 -1.1921,3.3475 -1.8126,4.3484 -0.6205,1.0007 -1.0901,1.6713 -1.4067,2.0209 0.003,-0.3496 -0.004,-0.9615 -0.0246,-1.8296 -0.0189,-0.8635 -0.0836,-1.9718 -0.2036,-3.323 -0.1189,-1.3464 -0.3124,-2.6675 -0.5786,-3.9535 -0.2997,-1.4484 -0.6626,-2.6498 -1.094,-3.6022 z"
         inkscape:export-xdpi="96"
         inkscape:export-ydpi="96" />
      <path
         inkscape:connector-curvature="0"
         id="path3734"
         style="fill:#1b1918;fill-rule:evenodd"
         d="m -184.24479,788.92748 c -1.5347,-0.5501 -3.1009,-0.939 -4.7032,-1.1661 -1.6024,-0.2267 -2.782,-0.3618 -3.5374,-0.3997 l 4.2128,-6.819 c 0.8185,0.2695 2.0506,0.7773 3.7039,1.517 1.6536,0.7399 3.1724,1.647 4.5527,2.7276 1.2187,-1.0247 2.4321,-1.9539 3.6456,-2.7881 1.2077,-0.8382 2.0629,-1.4038 2.5549,-1.7001 -0.09,0.1184 -0.2412,0.3042 -0.4368,0.564 -0.2003,0.2608 -0.503,0.6775 -0.9149,1.2411 -0.4059,0.5675 -0.9,1.2632 -1.4816,2.0914 -0.5775,0.8225 -1.0906,1.5964 -1.5359,2.3118 2.2108,2.494 3.9663,5.1471 5.2705,7.9581 1.2993,2.8123 2.1627,4.9121 2.5882,6.2947 -1.0531,-1.163 -2.6277,-2.8214 -4.7298,-4.9592 -2.1035,-2.1425 -3.9583,-3.8077 -5.5556,-4.9977 -0.4448,0.9095 -0.7672,1.7389 -0.9621,2.4821 -0.4829,1.8598 -0.6543,3.7547 -0.5219,5.6718 0.1333,1.9216 0.2965,3.3386 0.4864,4.2565 l -7.7434,-1.2598 c 0.1208,-0.9821 0.3977,-2.4404 0.83,-4.3744 0.4325,-1.934 1.0559,-3.6682 1.8798,-5.2047 0.616,-1.1195 1.4154,-2.267 2.3978,-3.4473 z"
         inkscape:export-xdpi="96"
         inkscape:export-ydpi="96" />
      <path
         inkscape:connector-curvature="0"
         id="path3736"
         style="fill:#1b1918;fill-rule:evenodd"
         d="m -222.85809,794.80208 c 0.2044,0.7953 0.3521,1.4126 0.443,1.8528 0.2472,1.195 0.384,2.3135 0.4136,3.3492 0.0609,1.8369 -0.1154,3.5884 -0.5245,5.2486 -0.4133,1.6657 -0.8971,3.0621 -1.4555,4.1945 -0.5576,1.1374 -1.0554,2.0079 -1.4881,2.616 -0.4364,0.6138 -0.7496,1.0276 -0.9493,1.2433 0.0401,-0.457 0.079,-1.2328 0.1159,-2.3322 0.037,-1.0995 0.0163,-2.4762 -0.0568,-4.131 -0.078,-1.654 -0.2563,-3.1676 -0.5403,-4.5397 -0.1622,-0.7842 -0.3698,-1.5237 -0.6342,-2.222 -0.3834,-0.9625 -0.9837,-1.985 -1.8018,-3.0721 l 0.1788,0.8655 c 0.2286,1.1042 0.3641,2.2178 0.4137,3.3492 0.061,1.837 -0.1151,3.5883 -0.5247,5.2485 -0.4133,1.6658 -0.897,3.0622 -1.4554,4.1946 -0.5586,1.1326 -1.0563,2.0033 -1.488,2.616 -0.4373,0.6088 -0.7505,1.0227 -0.9501,1.2386 0.0399,-0.4571 0.0789,-1.2331 0.1158,-2.3323 0.0378,-1.0945 0.017,-2.4714 -0.0559,-4.1262 -0.0731,-1.6551 -0.2564,-3.1675 -0.5403,-4.5398 -0.1495,-0.7218 -0.3628,-1.4652 -0.6513,-2.2332 -0.4397,-1.1853 -1.1552,-2.3784 -2.1559,-3.5774 -0.9959,-1.1998 -1.7832,-2.0889 -2.3605,-2.6623 l 7.3072,-4.5626 c 0.0729,0.1594 0.1868,0.4449 0.3504,0.8499 0.1632,0.4048 0.3602,0.9226 0.6008,1.5557 l 5.8064,-3.6241 c 0.0707,0.1501 0.1943,0.4584 0.3697,0.9206 0.1813,0.4663 0.3567,0.9533 0.5314,1.4606 l 6.1409,-3.8377 c 0.071,0.1498 0.1848,0.4353 0.3511,0.8547 0.1666,0.4192 0.3637,0.9617 0.5996,1.6208 0.2322,0.6649 0.4745,1.4025 0.723,2.2184 0.2438,0.8171 0.469,1.7129 0.6718,2.6929 0.2471,1.1951 0.3841,2.3136 0.4139,3.3493 0.0607,1.837 -0.1164,3.5837 -0.5249,5.2484 -0.4143,1.6611 -0.8981,3.0574 -1.4556,4.1949 -0.5585,1.1324 -1.0563,2.0031 -1.4878,2.616 -0.4327,0.6078 -0.7505,1.0225 -0.9504,1.2385 0.045,-0.4582 0.084,-1.234 0.1159,-2.3325 0.0369,-1.0992 0.0161,-2.476 -0.0568,-4.1309 -0.0731,-1.6551 -0.2563,-3.1677 -0.5411,-4.5443 -0.1682,-0.8129 -0.381,-1.5516 -0.6477,-2.2142 -0.3842,-1.0621 -1.1711,-2.3353 -2.366,-3.823 z"
         inkscape:export-xdpi="96"
         inkscape:export-ydpi="96" />
      <path
         inkscape:connector-curvature="0"
         id="path3738"
         style="fill:#e30016;fill-rule:evenodd"
         d="m -195.23859,794.78478 c -0.2481,-0.3575 -0.5465,-0.7147 -0.8944,-1.0715 -0.6376,-0.6956 -1.6594,-1.4414 -3.0597,-2.2336 -0.8246,2.4238 -1.3814,4.3837 -1.674,5.885 1.6335,-0.5622 3.5093,-1.4238 5.6281,-2.5799 z m -5.8627,6.9658 c 0.1089,0.526 0.1989,0.9609 0.2662,1.3108 0.0674,0.35 0.1379,0.7393 0.2154,1.1619 0.1297,0.6263 0.298,1.3443 0.5057,2.1538 0.2072,0.8098 0.3507,1.3584 0.4319,1.6557 l -7.2755,0.0143 c -0.0333,-0.3521 -0.0628,-0.9542 -0.0943,-1.8053 -0.0316,-0.8509 -0.0311,-1.8132 0.002,-2.8819 -0.6745,0.0648 -1.3006,0.0996 -1.8663,0.1119 -0.5669,0.007 -0.9642,0.0149 -1.1893,0.0116 l 0.5463,-5.9161 c 0.2398,0.0503 0.6778,0.1193 1.3104,0.2127 0.6372,0.0925 1.3098,0.1629 2.0321,0.2078 0.2186,-0.6784 0.4438,-1.2533 0.6645,-1.7278 0.7058,-1.4323 2.2108,-3.3637 4.5136,-5.7993 -0.5265,-0.2799 -1.0154,-0.5228 -1.463,-0.7344 -0.4464,-0.2067 -0.7595,-0.3464 -0.939,-0.4189 l 6.6159,-5.3717 c 0.2023,0.1824 0.5309,0.4934 0.9788,0.924 0.4482,0.431 1.0335,1.0675 1.7447,1.9026 0.7159,0.8342 1.4155,1.7811 2.0975,2.8366 0.6876,1.0594 1.1903,2.0918 1.5054,3.1086 0.1233,0.4032 0.2067,0.71 0.2511,0.9252 0.3037,1.4676 0.3824,3.1015 0.2315,4.9026 -0.145,1.8046 -0.3505,3.3429 -0.6054,4.617 -0.2598,1.2751 -0.4558,2.183 -0.5997,2.7165 0.0191,-0.004 -0.0385,-0.3312 -0.1739,-0.9861 -0.1663,-0.8031 -0.3896,-1.7141 -0.6606,-2.7349 -0.2748,-1.0152 -0.6187,-2.0757 -1.0397,-3.17 -0.4159,-1.0955 -0.8686,-2.0788 -1.3558,-2.9402 -0.5189,0.601 -1.114,1.2426 -1.7837,1.9095 -0.6686,0.6718 -1.4235,1.3365 -2.258,2.0026 -0.8401,0.6622 -1.7073,1.2653 -2.6088,1.8009 z m 34.9099,-13.8963 c -0.4853,-1.1162 -1.1775,-2.2941 -2.0734,-3.5397 -0.9003,-1.2445 -1.6055,-2.1707 -2.1103,-2.7791 l 7.9561,-4.8712 c 0.0559,0.1729 0.1636,0.5497 0.3272,1.1239 0.1637,0.5743 0.3336,1.2272 0.5147,1.9575 0.1809,0.7302 0.3484,1.4683 0.5009,2.2047 0.4786,2.3137 0.7374,4.2394 0.7693,5.7683 0.0812,2.4161 -0.17,4.5768 -0.7645,6.4746 -0.5887,1.9014 -1.1918,3.3475 -1.8127,4.3483 -0.6204,1.0007 -1.0901,1.6713 -1.4067,2.0209 0.003,-0.3496 -0.004,-0.9614 -0.0243,-1.8296 -0.019,-0.8635 -0.084,-1.9717 -0.2037,-3.3229 -0.1192,-1.3465 -0.3125,-2.6676 -0.5784,-3.9535 -0.2998,-1.4484 -0.6629,-2.6497 -1.0942,-3.6022 z"
         inkscape:export-xdpi="96"
         inkscape:export-ydpi="96" />
      <path
         inkscape:connector-curvature="0"
         id="path3740"
         style="fill:#e30016;fill-rule:evenodd"
         d="m -182.59699,788.87268 c -1.5345,-0.5501 -3.1008,-0.939 -4.7031,-1.166 -1.6025,-0.2269 -2.7819,-0.3617 -3.5377,-0.3999 l 4.2131,-6.819 c 0.8185,0.2695 2.0502,0.7774 3.704,1.5172 1.6537,0.7398 3.1723,1.6471 4.5524,2.7275 1.2189,-1.0248 2.4324,-1.9539 3.6457,-2.7881 1.2077,-0.838 2.0628,-1.4038 2.5551,-1.7001 -0.0904,0.1185 -0.2413,0.3042 -0.4369,0.5639 -0.2002,0.2609 -0.503,0.6776 -0.9148,1.2411 -0.4061,0.5676 -0.9003,1.2633 -1.4817,2.0914 -0.5778,0.8225 -1.0907,1.5965 -1.5358,2.3119 2.2107,2.4939 3.9658,5.1471 5.2705,7.958 1.2994,2.8124 2.1624,4.9122 2.588,6.2947 -1.053,-1.163 -2.6275,-2.8214 -4.7298,-4.9591 -2.1034,-2.1423 -3.9585,-3.8077 -5.5557,-4.9978 -0.445,0.9095 -0.7669,1.7389 -0.9621,2.4823 -0.4827,1.8597 -0.6541,3.7546 -0.5219,5.6716 0.1331,1.9217 0.2967,3.3387 0.4866,4.2565 l -7.7437,-1.2596 c 0.1212,-0.9822 0.3977,-2.4403 0.8303,-4.3745 0.4325,-1.9341 1.056,-3.6683 1.8796,-5.2047 0.616,-1.1195 1.4156,-2.267 2.3979,-3.4473 z"
         inkscape:export-xdpi="96"
         inkscape:export-ydpi="96" />
      <path
         inkscape:connector-curvature="0"
         id="path3742"
         style="fill:#1b1918;fill-rule:evenodd"
         d="m -201.40359,818.34348 2.0143,-0.1539 c -0.0631,0.8459 -0.3185,1.5827 -0.7686,2.2074 -0.4479,0.6245 -1.0951,1.0251 -1.9412,1.2001 -0.9172,0.1898 -1.7105,0.0298 -2.3785,-0.4819 -0.6697,-0.5111 -1.106,-1.2556 -1.3077,-2.2315 -0.2332,-1.1272 -0.1054,-2.1959 0.3819,-3.202 0.4874,-1.0061 1.3146,-1.6306 2.4824,-1.8722 0.8498,-0.1757 1.5903,-0.0583 2.2244,0.3535 0.634,0.4121 1.045,1.0434 1.2326,1.8964 l -2.0299,0.5761 c -0.1006,-0.4479 -0.2391,-0.7678 -0.4148,-0.9621 -0.1772,-0.194 -0.4212,-0.2597 -0.7338,-0.1951 -0.539,0.1114 -0.8232,0.5895 -0.8547,1.4327 -0.0296,0.8424 0.002,1.4934 0.0973,1.954 0.1552,0.7491 0.5213,1.0639 1.1007,0.9442 0.2868,-0.0593 0.4971,-0.2039 0.6346,-0.4325 0.136,-0.2281 0.2227,-0.5719 0.261,-1.0332 z m 4.5646,-0.3442 -3.1041,-4.6341 2.3061,-0.477 1.5112,2.719 0.9794,-3.2342 2.0119,-0.4161 -1.7961,5.724 c -0.283,0.8893 -0.509,1.4451 -0.682,1.6692 -0.1731,0.2228 -0.4075,0.4427 -0.7006,0.6575 -0.2944,0.2154 -0.745,0.3867 -1.3552,0.5129 l -1.069,0.2211 -0.0622,-1.645 0.6963,-0.1439 c 0.3235,-0.067 0.5898,-0.1619 0.7949,-0.2844 0.207,-0.123 0.3629,-0.3458 0.4694,-0.669 z m 4.2323,1.4741 -0.2959,-7.5646 2.0687,-0.4278 0.2263,5.8296 1.6502,-0.3413 -0.2281,-5.8293 2.0683,-0.4279 0.2264,5.8296 1.6539,-0.342 -0.2266,-5.8295 2.0669,-0.4276 0.2956,7.5646 z m 12.8176,-3.3295 0.0249,0.6731 -2.0666,0.4276 -0.2956,-7.5647 2.0681,-0.4278 0.1109,2.9494 c 0.0209,0.4493 0.0154,1.0222 -0.0165,1.7165 0.2896,-0.7837 0.5666,-1.4625 0.831,-2.0354 l 1.083,-2.3277 -0.0273,-0.7126 2.0685,-0.4278 0.2847,7.5668 -2.0687,0.4279 -0.106,-2.8992 c -0.0197,-0.4912 -0.0152,-1.0772 0.0122,-1.7556 -0.2979,0.8543 -0.5746,1.5517 -0.8302,2.0944 z"
         inkscape:export-xdpi="96"
         inkscape:export-ydpi="96" />
      <path
         inkscape:connector-curvature="0"
         id="path3744"
         style="fill:#e30016;fill-rule:evenodd"
         d="m -221.21029,794.74718 c 0.2045,0.7953 0.352,1.4129 0.4432,1.8529 0.2472,1.195 0.3836,2.3135 0.4134,3.3494 0.061,1.8366 -0.1153,3.5881 -0.5243,5.2483 -0.4136,1.6658 -0.8975,3.0622 -1.4556,4.1946 -0.5575,1.1374 -1.0556,2.0079 -1.4882,2.616 -0.4363,0.6137 -0.7497,1.0275 -0.9494,1.2433 0.0404,-0.4571 0.0793,-1.2329 0.1161,-2.3323 0.0366,-1.0993 0.0163,-2.4761 -0.057,-4.131 -0.0778,-1.654 -0.2564,-3.1676 -0.5401,-4.5397 -0.1623,-0.7841 -0.37,-1.5236 -0.6341,-2.2217 -0.3835,-0.9628 -0.9839,-1.9853 -1.802,-3.0723 l 0.179,0.8654 c 0.2283,1.1043 0.3639,2.2178 0.4137,3.3494 0.0607,1.8369 -0.1152,3.5882 -0.5247,5.2484 -0.4132,1.6657 -0.8971,3.0621 -1.4556,4.1945 -0.5585,1.1326 -1.0563,2.0034 -1.4881,2.616 -0.4372,0.6089 -0.7502,1.0228 -0.9501,1.2386 0.04,-0.4571 0.0789,-1.2328 0.1159,-2.3322 0.0378,-1.0946 0.0171,-2.4714 -0.0561,-4.1262 -0.0728,-1.6551 -0.2563,-3.1675 -0.5402,-4.5398 -0.1491,-0.7219 -0.3626,-1.4652 -0.6512,-2.2332 -0.4395,-1.1854 -1.155,-2.3785 -2.1559,-3.5774 -0.9959,-1.1998 -1.783,-2.0889 -2.3604,-2.6623 l 7.3071,-4.5627 c 0.073,0.1595 0.1866,0.4449 0.3502,0.85 0.1636,0.4047 0.3603,0.9226 0.6012,1.5557 l 5.806,-3.6239 c 0.071,0.1498 0.1945,0.4582 0.3699,0.9206 0.1813,0.4662 0.3566,0.9533 0.5315,1.4603 l 6.1407,-3.8376 c 0.0709,0.1498 0.1848,0.4353 0.3514,0.8546 0.1664,0.4193 0.3634,0.9618 0.5995,1.6209 0.2323,0.6649 0.4744,1.4025 0.7231,2.2185 0.2438,0.817 0.4689,1.7128 0.6715,2.6927 0.2473,1.1951 0.3839,2.3137 0.4137,3.3494 0.0609,1.837 -0.1161,3.5836 -0.5245,5.2484 -0.4143,1.661 -0.8981,3.0574 -1.4556,4.1948 -0.5584,1.1326 -1.0564,2.0032 -1.4881,2.6161 -0.4323,0.6078 -0.7504,1.0227 -0.95,1.2384 0.0447,-0.4582 0.0838,-1.2337 0.1157,-2.3324 0.0369,-1.0992 0.0163,-2.4759 -0.057,-4.1309 -0.0729,-1.6551 -0.2561,-3.1677 -0.5411,-4.5444 -0.1679,-0.8129 -0.3805,-1.5515 -0.6473,-2.2142 -0.3842,-1.062 -1.1711,-2.3352 -2.3662,-3.823 z"
         inkscape:export-xdpi="96"
         inkscape:export-ydpi="96" />
      <path
         inkscape:connector-curvature="0"
         id="path3746"
         style="fill:#ffffff;fill-rule:evenodd"
         d="m -201.04659,817.90388 2.0144,-0.1539 c -0.0631,0.8459 -0.3185,1.5828 -0.7686,2.2076 -0.448,0.6243 -1.0951,1.0249 -1.9412,1.1999 -0.9172,0.1898 -1.7106,0.0298 -2.3785,-0.4818 -0.6699,-0.5111 -1.1058,-1.2555 -1.3077,-2.2313 -0.2333,-1.1275 -0.1056,-2.1962 0.382,-3.2022 0.4873,-1.0059 1.3145,-1.6307 2.4824,-1.8723 0.8496,-0.1757 1.5903,-0.0582 2.2243,0.3538 0.6341,0.412 1.0449,1.0433 1.2326,1.8963 l -2.03,0.5762 c -0.1003,-0.4481 -0.2391,-0.768 -0.4148,-0.9624 -0.1772,-0.1939 -0.4211,-0.2597 -0.7338,-0.1949 -0.5388,0.1115 -0.8231,0.5893 -0.8546,1.4325 -0.0295,0.8425 0.002,1.4935 0.0974,1.9541 0.155,0.7492 0.5212,1.064 1.1006,0.9443 0.2869,-0.0595 0.4971,-0.2039 0.6346,-0.4324 0.1359,-0.2284 0.2227,-0.5721 0.2609,-1.0335 z m 4.5647,-0.344 -3.1041,-4.6341 2.3061,-0.4771 1.5112,2.7189 0.9795,-3.2342 2.0118,-0.4161 -1.7962,5.724 c -0.2829,0.8893 -0.509,1.4451 -0.682,1.6692 -0.173,0.2228 -0.4074,0.4428 -0.7004,0.6575 -0.2946,0.2155 -0.7451,0.3868 -1.3554,0.513 l -1.069,0.2211 -0.0622,-1.6449 0.6963,-0.1441 c 0.3235,-0.0669 0.5897,-0.1619 0.7949,-0.2844 0.2072,-0.1229 0.3631,-0.3457 0.4695,-0.6688 z m 4.2323,1.4741 -0.2956,-7.5645 2.0683,-0.4281 0.2264,5.8298 1.6501,-0.3414 -0.228,-5.8293 2.0683,-0.4279 0.2263,5.8298 1.654,-0.3422 -0.2266,-5.8296 2.0668,-0.4275 0.2957,7.5646 z m 12.8175,-3.3296 0.0251,0.6732 -2.0667,0.4274 -0.2957,-7.5647 2.0683,-0.4278 0.1111,2.9496 c 0.0205,0.4494 0.0152,1.0221 -0.0164,1.7165 0.2892,-0.7839 0.5661,-1.4625 0.8306,-2.0356 l 1.0831,-2.3275 -0.0274,-0.7128 2.0686,-0.4277 0.2845,7.5669 -2.0687,0.4277 -0.106,-2.8991 c -0.0196,-0.4912 -0.0152,-1.0772 0.0122,-1.7555 -0.2977,0.8541 -0.5745,1.5516 -0.8301,2.0943 z"
         inkscape:export-xdpi="96"
         inkscape:export-ydpi="96" />
    </g>
  </g>
</svg>
