<svg version="1" xmlns="http://www.w3.org/2000/svg" width="928" height="928" viewBox="0 0 696.000000 696.000000"><path d="M343.5 20.6c-73.1 9.7-147.5 44.1-207.4 95.8C69.5 174 29.8 245.2 19.8 325c-1.6 13.3-1.6 55.3 0 68 5.5 42.2 15.1 74.9 31.8 108.1 16 32 34.2 57 61.3 83.9 34.6 34.5 73.6 59.7 122.1 79 42.2 16.7 79.9 24.2 121.5 24.2 46.9 0 84.7-8.9 128-30.2 34.5-17 62.8-37.5 92.4-67.1C631.8 536 674 460.2 688 391c4.1-20.3 5.1-30.1 5.1-48.5 0-15.1-.3-17.6-5.6-46.5-6.4-35.3-8.4-43.2-12.8-51.5-3-5.6-14.4-18.2-18.5-20.4-1.7-.9-1.6-.1.4 11.2 10.9 59.1 10.2 100.3-2.3 138.2-8.9 26.7-35.6 71.4-63.5 106-44.4 55.3-94.1 90.7-150 107-80.2 23.4-170.5 2-241.8-57.4-9.4-7.8-30.1-28.3-37.8-37.5l-6.6-7.9 2.2-3.6c14.5-23.6 22-48.8 23.1-77.1.6-15.8.7-16.3 2-12 4.8 16.4 6.5 32.4 6.5 63.7l.1 27.2 2.3-2.7c1.2-1.5 3.8-5.3 5.8-8.5 2-3.1 3.9-5.7 4.2-5.7.3 0 .2 4.1 0 9-.3 5-.4 9-.2 9 .1 0 2.8-3.9 5.9-8.6 11.4-17.5 19-35.3 23.6-55.2 2.6-11.2 3.7-40.7 1.9-52-2.7-17.1-10.9-45.8-17.2-60l-2.3-5.3-4.8 3-4.7 3.1-1.2-2.5c-.6-1.4-1.6-2.5-2.1-2.5s-8.6 4.8-17.9 10.6c-9.3 5.9-17.3 10.3-17.7 9.8-.4-.5-1.6-3-2.5-5.7-1-2.6-2-4.7-2.2-4.7-.3 0-2.2 1.1-4.2 2.5-4.6 3.1-5.6 3.1-7 0l-1.1-2.5-15.9 10c-8.8 5.5-16.4 10-16.9 10-.6 0-2.1-2.5-3.4-5.5l-2.4-5.5-4.8 3-4.7 3-1.2-2.5c-.6-1.4-1.5-2.5-2-2.5-1 0-53.8 33-53.8 33.6 0 .3 3.1 4 7 8.2 12 13.4 18 21.4 22.5 30.7 9.8 19.8 12.8 38.2 12.9 78.7.1 21.2.4 27.4 1.3 26.5.6-.7 3.4-4.5 6.2-8.6 5-7.3 5.1-7.4 5.1-4.1 0 2.8-1.1 4.4-6.3 9.7-3.5 3.4-6.8 6.3-7.3 6.3-.6 0-1.5-10.2-2.2-24.8-2.3-48.1-8.5-74.5-22.4-95.7-2.5-3.9-8.4-11.6-13.2-17.3-4.7-5.6-8.6-10.6-8.6-11.1 0-1.5 3.6-4 29-19.6 14-8.6 26.4-16.6 27.6-17.6 1.7-1.6 2.2-3.6 2.7-9.7 1.3-18.8 7.2-39.1 17.2-59.7 7.8-16.1 17.2-30.2 30.9-46.7 57.4-69.2 135.5-114 241.1-138.5 14.2-3.3 17.5-3.7 29.5-3.7 23.5-.1 42.2 5.7 67.5 20.7 26.4 15.7 62.4 47.9 82.6 73.9 15.5 20 45.5 69.8 41.9 69.8-.5 0-1.2-1.1-1.6-2.5-.3-1.4-.9-2.5-1.2-2.5-.8 0-58.1 35.1-58.6 35.9-.3.4 3.6 6.1 8.5 12.6 10.8 14.3 18 26 22.5 36.5 7.8 18.5 13.4 52.8 13.4 81.7 0 6.2.4 11.3.9 11.3s3-3.4 5.7-7.5 5.2-7.5 5.6-7.5c.4 0 .8 3.5 1 7.7l.3 7.8 5-7.5c18.2-27.6 26.5-61.7 23.6-96.9-.7-7.3-.9-13.6-.7-13.9.3-.3 4.4 1.1 9.1 3 4.7 2 8.5 3.2 8.5 2.7 0-1.7-4.2-18.8-7.1-28.9-23.9-82.2-76.5-152.1-149.4-198.7-33-21-53.8-30.4-78.2-35.4-14.1-2.9-53.6-3.6-70.8-1.3zM131.8 414.7c2.6 15.1 3.5 28 3.6 52.6.1 29.2-.7 27.8 7.9 14.8 4-6.2 4.2-6.3 4.5-3.6.3 2.2-1.2 5.1-6.6 12.9-3.8 5.6-7.3 10-7.8 9.8-.5-.1-.9-12-.9-27v-26.7l-2.8-4.8c-2.8-4.8-2.9-5-1.8-12.9.6-4.5 1.1-11.2 1.1-15 0-3.7.4-6.8.8-6.8.5 0 1.4 3 2 6.7z"/><path d="M541 204c.6 1.1 1.3 2 1.6 2 .2 0 0-.9-.6-2s-1.3-2-1.6-2c-.2 0 0 .9.6 2zM545 211.6c.6 1.4.8 2.9.5 3.3-.2.5-4.8 1.1-10.2 1.4-12.7.9-56.6 5.9-80.3 9.2-37.1 5.2-102.2 16.9-111.7 20.1-2.3.8-11.4 3.1-20 5-17.5 3.9-48.1 11.5-70.3 17.3-8 2.2-16.3 4.2-18.5 4.6-4.6.7-29 8-54.3 16.2-15.4 5-17.2 5.8-17.2 7.8 0 2.1.3 2.1 14.8-2.7 110.1-36.7 249.7-65.2 363-74.3 4.5-.4 8.2-1.1 8.2-1.6 0-1.2-3.9-8.9-4.5-8.9-.2 0 0 1.2.5 2.6zM433.3 248.9c-1.2 1.9-1.4 1.9-6.2.3-2.8-.8-5.2-1.4-5.4-1.1-1 1.1-29.9 48.2-30.3 49.2-.3.9 3 1.6 11.8 2.6 6.8.7 17 2.1 22.7 3.2 10.2 2 26.1 6.5 26.1 7.5 0 .2-2.2 3.2-4.9 6.7-11.6 14.8-20.4 33.1-25.5 53.2-3.4 13.7-7.6 36.9-6.8 37.6.4.4 12.6 2.5 27.2 4.8 14.6 2.4 27.3 4.5 28.3 4.7 1 .3 1.7 0 1.7-.9 0-1.1 1-1.2 5.6-.4 3 .5 5.8.6 6.1.3.4-.3.1-4.1-.6-8.4-2.2-13.7-2.6-42.4-.7-53.2 1.8-10.5 5.6-23.2 6.8-22.8 2.6 1 22.7 20 43.5 41.3l24.4 25-2.4-6.5c-1.3-3.6-3.2-8.2-4-10.3-.9-2-1.3-3.7-.9-3.6.4 0 4.5 4.2 9.2 9.4 4.7 5.1 8.8 9.4 9.2 9.4 1.7.2-11.6-31.7-21.3-51.1-8.5-17-18.3-32-30.1-46.2-3.2-3.9-5.8-7.5-5.8-8.1 0-1.3 13.1-20.7 23.2-34.3 3.8-5.2 6.8-9.6 6.6-9.8-.2-.2-4.8 2.6-10.1 6.1-5.3 3.6-9.9 6.5-10.2 6.5-.4 0 1.5-2.7 4-6.1 2.6-3.3 4.5-6.2 4.3-6.4-.5-.6-17.1 10.6-28.3 19-4.4 3.3-8.5 6.3-9.2 6.8-.7.4-3.7-.9-7.5-3.4-7.5-4.9-26.7-14.3-39.5-19.3-5.1-2-9.4-3.6-9.6-3.6-.1 0-.8.9-1.4 1.9z"/><path d="M354.1 275.7l-3.2 2.5-2.4-2.2c-1.3-1.2-3-2-3.8-1.7-.8.3-12.1 9.2-25.2 19.8l-23.7 19.3 8.6 4.3c4.7 2.4 8.6 4.7 8.6 5.1 0 .5-1.4 2.1-3.1 3.8-11 10.3-27.9 33.5-32.1 43.9l-2.5 6h-6.4c-3.5 0-6.9.3-7.4.7-.6.3-3.4.2-6.4-.4-2.9-.5-5.4-.8-5.6-.6-.1.2-1 9.1-1.9 19.8-.9 10.7-1.9 20.5-2.2 21.7-.4 2.3-.3 2.3 11.1 2.3H268v10.7c0 6 .3 13.9.7 17.7l.6 6.9 32.8-.5c18.1-.2 33.1-.6 33.3-.9.3-.2-.6-4.6-2-9.8-1.3-5.1-3.7-15.6-5.3-23.2l-2.9-14 5.7-3.6c8.4-5.4 16.5-11.8 27.3-21.5l9.6-8.8 3.6 8.6c4.6 10.9 9.7 27.5 13.2 42.7 1.5 6.5 3 11.3 3.4 10.5.4-.7 1.7-6.4 3-12.6 1.4-6.6 2.7-10.8 3.1-10 .4.7 1.8 6.2 3.1 12.1 1.3 5.9 2.6 10.7 2.9 10.7 1 0 5.9-26.5 7.5-40.8 2.2-18.7 1.5-41.8-1.5-52.1-5.2-17.6-15-33.3-34.9-55.7-3.5-4-8-8.5-10.1-10.2l-3.8-3-3.2 2.5zm-10.4 65.2c6.6 5.2 13.6 13.2 12.5 14.3-.5.5-6.7 3.8-13.8 7.3-15.3 7.6-15 7.7-10.5-7.7s5.4-17.8 6.2-17.8c.4 0 2.9 1.7 5.6 3.9zM499.3 459.7c-.7.3-1.3 1.8-1.3 3.5s-2.2 8-5 14c-2.7 6-5 11.9-4.9 13.1 0 1.6.6 1 2.1-2.3 1.1-2.5 4.3-9.6 7.1-15.8 4.7-10.6 5.2-13.7 2-12.5zM468 471.2c.1 11.9 1.9 52 2.4 52.5s10.6-1.1 14.9-2.3c.9-.3 1.7-1.2 1.7-2.1 0-1.2-.7-1.4-3.5-.9-1.9.3-5 .9-6.9 1.2l-3.3.6-.7-18.8c-1-28.7-1.6-35.4-3.2-35.4-1 0-1.4 1.4-1.4 5.2zM443 479.8c0 4.9.3 14.4.7 21.1.5 10.4.8 12.1 2.2 11.9 1.7-.4 1.8-3.1.5-29.6-.5-9.4-1-12.2-2-12.2-1.1 0-1.4 2-1.4 8.8zM414.7 477.7c-.4 1 1.2 38.3 1.8 40 .2.7 1.1 1 1.9.7 1-.4 1.3-1.9 1-6.2-.2-3.1-.7-12.3-1-20.5-.5-11.3-.9-14.7-1.9-14.7-.8 0-1.5.3-1.8.7zM501.1 484.4c-1.5 4.2-1.7 7.9-1.3 23.5l.2 10.3 3.8-.7c10.5-1.9 13.2-2.7 13.2-4.1 0-1.7-3-1.8-8.3-.3-2.2.6-4.2.8-4.5.4-.4-.4-.9-7.9-1.2-16.8-.5-15.3-.6-16-1.9-12.3z"/><path d="M387.5 484.3c-.8 3.1.8 55.3 1.7 56.2.3.4 5.3-.3 11-1.5 5.6-1.2 21.1-4.4 34.3-7.1 13.2-2.7 24.8-5.2 25.8-5.5 1.8-.6 2.3-1.9.8-2.8-.4-.3-16 2.6-34.6 6.5-18.5 3.8-33.9 6.9-34 6.7-.2-.2-.8-12.2-1.5-26.8-1-24.9-2-31.8-3.5-25.7zM369.5 487.2c-3.3 9.4-5.3 17.4-4.6 18.7.8 1.3 2.2-2.5 6.7-18.2.6-1.9-1.4-2.4-2.1-.5zM334.5 494.1c-.4.6 4.6 9 11 18.7 10.9 16.2 11.9 17.4 13.1 15.7.8-1.1 1.3-2.4 1-3-.2-.5-5.2-8.1-11-16.8-10-14.7-12.5-17.3-14.1-14.6zM294.2 508.2c-5.2 8.6-6.7 21.5-3.6 31.7 2.8 9.5 13.2 18.1 21.9 18.1 4.1 0 12.2-3 16.4-6.1 5-3.5 4.9-4.9 0-2-5.1 3-12.7 4.4-17.8 3.2-6.9-1.5-11.7-5.6-15.4-13-2.8-5.8-3.2-7.5-3.2-15.1 0-6.4.5-9.9 2.2-14.3 2.6-6.4 2.4-7.2-.5-2.5zM314.3 508.5c-3.1 2.2-2.9 3.2.6 2.7 2.1-.3 3.3.2 4.5 1.9.9 1.3 1.6 3.1 1.6 4.1 0 .9.3 1.9.8 2.2 1.4.8 16.2-3.8 16.2-5.1 0-1.7-2.4-1.6-8 .1l-4.5 1.3-2-4.1c-2.3-4.6-5.5-5.7-9.2-3.1z"/><path d="M322.6 532.2c-1.1 3.6-1.3 5.8-.5 5.8 1.1 0 2.9-3.4 2.9-5.4 0-1.9-1.9-2.1-2.4-.4zM342 542.3c0 7.2.6 8.6 3.3 8 11-2.2 16.9-4.7 20.1-8.2 2.4-2.6 1.7-2.7-2.6-.2-1.8 1-6.3 2.6-10 3.4l-6.7 1.5-.3-4.7c-.2-3.4-.7-4.7-2-4.9-1.5-.3-1.8.5-1.8 5.1z"/></svg>